<svg xmlns="http://www.w3.org/2000/svg" viewBox="0 0 100 100"><rect width="100" height="100" rx="20" fill="#F6851B"/><path d="M82 28L57 44l4-11z" fill="#E4751F"/><path d="M18 28l25 14 4-11z" fill="#E4751F"/><path d="M22 28l-4 2 1 2 17 44 6-4-1 14 13 13 20-13 1-14 6 4 17-44 1-2-4-2z" fill="#763D16"/><path d="M47 47l-4 7 14 6 14-6-4-7z" fill="#E4751F"/><path d="M39 74l7-10-6-3h18l-6 3 7 10z" fill="#CD6116"/><path d="M82 28l-17 4-5-11zM25 32l-5-11-17 4z" fill="#E4751F"/><path d="M65 74l-1 14 13 13 4-2zM35 74l-1 14-13 13-4-2z" fill="#F5841F"/></svg>
